<svg width="24" height="25" viewBox="0 0 24 25" fill="none" xmlns="http://www.w3.org/2000/svg">
<path d="M18.3 6.38967C18.2075 6.29696 18.0976 6.22342 17.9766 6.17323C17.8556 6.12305 17.7259 6.09722 17.595 6.09722C17.464 6.09722 17.3343 6.12305 17.2134 6.17323C17.0924 6.22342 16.9825 6.29696 16.89 6.38967L12 11.2697L7.10998 6.37967C7.0174 6.28708 6.90749 6.21364 6.78652 6.16354C6.66556 6.11343 6.53591 6.08765 6.40498 6.08765C6.27405 6.08765 6.1444 6.11343 6.02344 6.16354C5.90247 6.21364 5.79256 6.28708 5.69998 6.37967C5.6074 6.47225 5.53396 6.58216 5.48385 6.70312C5.43375 6.82409 5.40796 6.95374 5.40796 7.08467C5.40796 7.2156 5.43375 7.34525 5.48385 7.46621C5.53396 7.58717 5.6074 7.69709 5.69998 7.78967L10.59 12.6797L5.69998 17.5697C5.6074 17.6622 5.53396 17.7722 5.48385 17.8931C5.43375 18.0141 5.40796 18.1437 5.40796 18.2747C5.40796 18.4056 5.43375 18.5352 5.48385 18.6562C5.53396 18.7772 5.6074 18.8871 5.69998 18.9797C5.79256 19.0722 5.90247 19.1457 6.02344 19.1958C6.1444 19.2459 6.27405 19.2717 6.40498 19.2717C6.53591 19.2717 6.66556 19.2459 6.78652 19.1958C6.90749 19.1457 7.0174 19.0722 7.10998 18.9797L12 14.0897L16.89 18.9797C16.9826 19.0722 17.0925 19.1457 17.2134 19.1958C17.3344 19.2459 17.464 19.2717 17.595 19.2717C17.7259 19.2717 17.8556 19.2459 17.9765 19.1958C18.0975 19.1457 18.2074 19.0722 18.3 18.9797C18.3926 18.8871 18.466 18.7772 18.5161 18.6562C18.5662 18.5352 18.592 18.4056 18.592 18.2747C18.592 18.1437 18.5662 18.0141 18.5161 17.8931C18.466 17.7722 18.3926 17.6622 18.3 17.5697L13.41 12.6797L18.3 7.78967C18.68 7.40967 18.68 6.76967 18.3 6.38967Z" fill="#A1A1AA"/>
</svg>
