<svg width="17" height="17" viewBox="0 0 17 17" fill="none" xmlns="http://www.w3.org/2000/svg">
<path d="M14.3953 8.64172C14.3965 8.84062 14.3186 9.03187 14.1788 9.17337C14.039 9.31487 13.8488 9.39505 13.6499 9.39626L8.89994 9.42512L8.9288 14.175C8.93001 14.3739 8.85215 14.5652 8.71236 14.7067C8.57256 14.8482 8.38228 14.9284 8.18337 14.9296C7.98446 14.9308 7.79322 14.8529 7.65172 14.7131C7.51021 14.5733 7.43004 14.3831 7.42883 14.1841L7.39997 9.43423L2.65006 9.46309C2.45115 9.4643 2.25991 9.38644 2.1184 9.24664C1.9769 9.10685 1.89672 8.91657 1.89552 8.71766C1.89431 8.51875 1.97216 8.32751 2.11196 8.186C2.25175 8.0445 2.44204 7.96432 2.64094 7.96312L7.39086 7.93426L7.362 3.18434C7.36079 2.98544 7.43865 2.79419 7.57844 2.65269C7.71824 2.51119 7.90852 2.43101 8.10743 2.4298C8.30634 2.42859 8.49758 2.50645 8.63908 2.64625C8.78059 2.78604 8.86076 2.97632 8.86197 3.17523L8.89083 7.92514L13.6407 7.89629C13.8397 7.89508 14.0309 7.97293 14.1724 8.11273C14.3139 8.25252 14.3941 8.44281 14.3953 8.64172Z" fill="#A855F7"/>
</svg>
