<svg width="25" height="25" viewBox="0 0 25 25" fill="none" xmlns="http://www.w3.org/2000/svg">
<path d="M12.9438 3.67969V6.67969C12.9438 6.8786 12.8648 7.06937 12.7242 7.21002C12.5835 7.35067 12.3928 7.42969 12.1938 7.42969C11.9949 7.42969 11.8042 7.35067 11.6635 7.21002C11.5229 7.06937 11.4438 6.8786 11.4438 6.67969V3.67969C11.4438 3.48078 11.5229 3.29001 11.6635 3.14936C11.8042 3.00871 11.9949 2.92969 12.1938 2.92969C12.3928 2.92969 12.5835 3.00871 12.7242 3.14936C12.8648 3.29001 12.9438 3.48078 12.9438 3.67969ZM21.1938 11.9297H18.1938C17.9949 11.9297 17.8042 12.0087 17.6635 12.1494C17.5229 12.29 17.4438 12.4808 17.4438 12.6797C17.4438 12.8786 17.5229 13.0694 17.6635 13.21C17.8042 13.3507 17.9949 13.4297 18.1938 13.4297H21.1938C21.3928 13.4297 21.5835 13.3507 21.7242 13.21C21.8648 13.0694 21.9438 12.8786 21.9438 12.6797C21.9438 12.4808 21.8648 12.29 21.7242 12.1494C21.5835 12.0087 21.3928 11.9297 21.1938 11.9297ZM16.9667 16.3922C16.8249 16.2575 16.6361 16.1835 16.4405 16.186C16.2449 16.1885 16.0581 16.2673 15.9198 16.4056C15.7814 16.5439 15.7026 16.7307 15.7001 16.9263C15.6976 17.1219 15.7716 17.3107 15.9063 17.4525L18.027 19.5741C18.1677 19.7148 18.3586 19.7939 18.5576 19.7939C18.7566 19.7939 18.9475 19.7148 19.0882 19.5741C19.229 19.4333 19.308 19.2425 19.308 19.0434C19.308 18.8444 19.229 18.6535 19.0882 18.5128L16.9667 16.3922ZM12.1938 17.9297C11.9949 17.9297 11.8042 18.0087 11.6635 18.1494C11.5229 18.29 11.4438 18.4808 11.4438 18.6797V21.6797C11.4438 21.8786 11.5229 22.0694 11.6635 22.21C11.8042 22.3507 11.9949 22.4297 12.1938 22.4297C12.3928 22.4297 12.5835 22.3507 12.7242 22.21C12.8648 22.0694 12.9438 21.8786 12.9438 21.6797V18.6797C12.9438 18.4808 12.8648 18.29 12.7242 18.1494C12.5835 18.0087 12.3928 17.9297 12.1938 17.9297ZM7.42103 16.3922L5.29947 18.5128C5.15874 18.6535 5.07968 18.8444 5.07968 19.0434C5.07968 19.2425 5.15874 19.4333 5.29947 19.5741C5.4402 19.7148 5.63107 19.7939 5.8301 19.7939C6.02912 19.7939 6.21999 19.7148 6.36072 19.5741L8.48135 17.4525C8.61606 17.3107 8.69006 17.1219 8.68755 16.9263C8.68505 16.7307 8.60625 16.5439 8.46794 16.4056C8.32964 16.2673 8.14279 16.1885 7.94722 16.186C7.75164 16.1835 7.56283 16.2575 7.42103 16.3922ZM6.94385 12.6797C6.94385 12.4808 6.86483 12.29 6.72418 12.1494C6.58353 12.0087 6.39276 11.9297 6.19385 11.9297H3.19385C2.99494 11.9297 2.80417 12.0087 2.66352 12.1494C2.52287 12.29 2.44385 12.4808 2.44385 12.6797C2.44385 12.8786 2.52287 13.0694 2.66352 13.21C2.80417 13.3507 2.99494 13.4297 3.19385 13.4297H6.19385C6.39276 13.4297 6.58353 13.3507 6.72418 13.21C6.86483 13.0694 6.94385 12.8786 6.94385 12.6797ZM6.36072 5.78531C6.21999 5.64458 6.02912 5.56552 5.8301 5.56552C5.63107 5.56552 5.4402 5.64458 5.29947 5.78531C5.15874 5.92604 5.07968 6.11691 5.07968 6.31594C5.07968 6.51496 5.15874 6.70583 5.29947 6.84656L7.42103 8.96719C7.56283 9.1019 7.75164 9.1759 7.94722 9.17339C8.14279 9.17089 8.32964 9.09208 8.46794 8.95378C8.60625 8.81548 8.68505 8.62863 8.68755 8.43306C8.69006 8.23748 8.61606 8.04867 8.48135 7.90687L6.36072 5.78531Z" fill="#F9FAFB"/>
</svg>
