<svg width="25" height="25" viewBox="0 0 25 25" fill="none" xmlns="http://www.w3.org/2000/svg">
<path d="M23.0041 13.4297L13.6938 4.11938C13.555 3.97949 13.3898 3.86858 13.2078 3.79309C13.0258 3.71761 12.8305 3.67907 12.6335 3.6797H3.94379C3.74488 3.6797 3.55412 3.75871 3.41346 3.89937C3.27281 4.04002 3.19379 4.23078 3.19379 4.4297V13.1194C3.19316 13.3164 3.23171 13.5117 3.30719 13.6937C3.38268 13.8757 3.49359 14.0409 3.63348 14.1797L12.9438 23.49C13.0831 23.6293 13.2485 23.7399 13.4305 23.8153C13.6125 23.8907 13.8076 23.9295 14.0046 23.9295C14.2016 23.9295 14.3967 23.8907 14.5787 23.8153C14.7607 23.7399 14.9261 23.6293 15.0654 23.49L23.0041 15.5513C23.1434 15.412 23.254 15.2466 23.3294 15.0646C23.4048 14.8826 23.4436 14.6875 23.4436 14.4905C23.4436 14.2935 23.4048 14.0984 23.3294 13.9164C23.254 13.7344 23.1434 13.569 23.0041 13.4297ZM14.0041 22.4297L4.69379 13.1194V5.1797H12.6335L21.9438 14.49L14.0041 22.4297ZM9.19379 8.5547C9.19379 8.7772 9.12781 8.99471 9.0042 9.17971C8.88058 9.36472 8.70488 9.50891 8.49931 9.59406C8.29375 9.67921 8.06755 9.70149 7.84932 9.65808C7.63109 9.61467 7.43063 9.50752 7.2733 9.35019C7.11596 9.19286 7.00882 8.9924 6.96541 8.77417C6.922 8.55594 6.94428 8.32974 7.02943 8.12418C7.11458 7.91861 7.25877 7.74291 7.44378 7.61929C7.62878 7.49567 7.84629 7.4297 8.06879 7.4297C8.36716 7.4297 8.65331 7.54822 8.86429 7.7592C9.07527 7.97018 9.19379 8.25633 9.19379 8.5547Z" fill="#A855F7"/>
</svg>
